<svg xmlns="http://www.w3.org/2000/svg" xmlns:xlink="http://www.w3.org/1999/xlink" width="90" height="90" viewBox="0 0 90 90">
  <defs>
    <linearGradient id="linear-gradient" x1="0.5" x2="0.5" y2="1" gradientUnits="objectBoundingBox">
      <stop offset="0" stop-color="#92d050"/>
      <stop offset="1" stop-color="#0c9463"/>
    </linearGradient>
  </defs>
  <g id="Group_444" data-name="Group 444" transform="translate(-290 -814)">
    <g id="Rectangle_180" data-name="Rectangle 180" transform="translate(290 814)" stroke="rgba(0,0,0,0.1)" stroke-width="2" fill="url(#linear-gradient)">
      <rect width="90" height="90" rx="45" stroke="none"/>
      <rect x="1" y="1" width="88" height="88" rx="44" fill="none"/>
    </g>
    <path id="Path_792" data-name="Path 792" d="M371.982,148.219c1.789-5.045,1.106-10.539-2.819-14.581l-8.83-9.093a1.367,1.367,0,0,0-1.974,0l-10.751,11.085a17.259,17.259,0,0,0,.238,23.9l1.585,1.634a11,11,0,0,0,2.07,12.162l2.306,2.376a1.368,1.368,0,0,0,1.974,0l12.567-12.94C372.187,158.811,373.847,153.43,371.982,148.219Zm-5.607,12.512-11.579,11.923-1.32-1.359a8.049,8.049,0,0,1,0-11.134l10.98-11.306a7.365,7.365,0,0,0,.007-10.226c-1.569-1.6-4.131-4.232-4.131-4.232a1.367,1.367,0,0,0-1.968,0l-6.94,7.09a8.565,8.565,0,0,0-.024,11.893l2.358,2.428c-2.51,2.585-2.409,2.468-2.769,2.9l-1.177-1.213a14.335,14.335,0,0,1-.217-19.838l9.754-10.057,7.842,8.076c4.3,4.431,3.923,11.25-.381,15.681l-11.431,11.691a1.467,1.467,0,0,0,0,2.032,1.367,1.367,0,0,0,1.973,0l11.432-11.691a14.162,14.162,0,0,0,1.2-1.421C370.329,155.316,368.775,158.259,366.374,160.732ZM360.56,148.8l-1.783-1.837,1.461-1.505a1.467,1.467,0,0,0,0-2.032,1.367,1.367,0,0,0-1.974,0l-1.649,1.7a2.653,2.653,0,0,0,0,3.678l1.971,2.03-2.857,2.942-2.357-2.428a5.632,5.632,0,0,1,.016-7.82l5.955-6.084c.89.912,2.2,2.257,3.151,3.227a4.432,4.432,0,0,1-.015,6.154Z" transform="translate(-22.919 708.875)" fill="#fff"/>
  </g>
</svg>
